<mxfile host="app.diagrams.net" modified="2023-09-05T14:00:36.119Z" agent="Mozilla/5.0 (Windows NT 10.0; Win64; x64) AppleWebKit/537.36 (KHTML, like Gecko) Chrome/116.0.0.0 Safari/537.36" etag="N0lmKn3E-HHsUdx5mJCT" version="21.7.2" type="github">
  <diagram name="第 1 页" id="fnBkCTot6Ez0o81d7CIG">
    <mxGraphModel dx="496" dy="1459" grid="1" gridSize="10" guides="1" tooltips="1" connect="1" arrows="1" fold="1" page="1" pageScale="1" pageWidth="827" pageHeight="1169" math="0" shadow="0">
      <root>
        <mxCell id="0" />
        <mxCell id="1" parent="0" />
        <mxCell id="kYNa-zEm1gCkG2qr6x2S-17" value="" style="edgeStyle=orthogonalEdgeStyle;rounded=0;orthogonalLoop=1;jettySize=auto;html=1;fontSize=15;fontStyle=1" parent="1" source="kYNa-zEm1gCkG2qr6x2S-15" target="kYNa-zEm1gCkG2qr6x2S-16" edge="1">
          <mxGeometry relative="1" as="geometry" />
        </mxCell>
        <mxCell id="kYNa-zEm1gCkG2qr6x2S-15" value="Data Input&lt;br style=&quot;font-size: 15px;&quot;&gt;(α）" style="rounded=1;whiteSpace=wrap;html=1;absoluteArcSize=1;arcSize=14;strokeWidth=2;fontSize=15;fontStyle=1" parent="1" vertex="1">
          <mxGeometry x="330" y="80" width="150" height="50" as="geometry" />
        </mxCell>
        <mxCell id="kYNa-zEm1gCkG2qr6x2S-50" value="" style="edgeStyle=orthogonalEdgeStyle;rounded=0;orthogonalLoop=1;jettySize=auto;html=1;fontSize=15;fontStyle=1" parent="1" source="kYNa-zEm1gCkG2qr6x2S-16" target="kYNa-zEm1gCkG2qr6x2S-28" edge="1">
          <mxGeometry relative="1" as="geometry">
            <Array as="points">
              <mxPoint x="405" y="320" />
              <mxPoint x="493" y="320" />
            </Array>
          </mxGeometry>
        </mxCell>
        <mxCell id="kYNa-zEm1gCkG2qr6x2S-16" value="Preprocessing" style="ellipse;shape=cloud;whiteSpace=wrap;html=1;fontSize=15;fontStyle=1" parent="1" vertex="1">
          <mxGeometry x="330" y="170" width="150" height="80" as="geometry" />
        </mxCell>
        <mxCell id="kYNa-zEm1gCkG2qr6x2S-18" value="" style="shape=curlyBracket;whiteSpace=wrap;html=1;rounded=1;labelPosition=left;verticalLabelPosition=middle;align=right;verticalAlign=middle;fontSize=15;fontStyle=1" parent="1" vertex="1">
          <mxGeometry x="480" y="145" width="20" height="120" as="geometry" />
        </mxCell>
        <mxCell id="kYNa-zEm1gCkG2qr6x2S-19" value="interpolation" style="rounded=0;whiteSpace=wrap;html=1;fontSize=15;fontStyle=1" parent="1" vertex="1">
          <mxGeometry x="510" y="135" width="120" height="30" as="geometry" />
        </mxCell>
        <mxCell id="kYNa-zEm1gCkG2qr6x2S-20" value="Scattering Remove" style="rounded=0;whiteSpace=wrap;html=1;fontSize=15;fontStyle=1" parent="1" vertex="1">
          <mxGeometry x="510" y="175" width="120" height="30" as="geometry" />
        </mxCell>
        <mxCell id="kYNa-zEm1gCkG2qr6x2S-21" value="Normalization" style="rounded=0;whiteSpace=wrap;html=1;fontSize=15;fontStyle=1" parent="1" vertex="1">
          <mxGeometry x="510" y="255" width="120" height="30" as="geometry" />
        </mxCell>
        <mxCell id="kYNa-zEm1gCkG2qr6x2S-22" value="Smoothing" style="rounded=0;whiteSpace=wrap;html=1;fontSize=15;fontStyle=1" parent="1" vertex="1">
          <mxGeometry x="510" y="215" width="120" height="30" as="geometry" />
        </mxCell>
        <mxCell id="kYNa-zEm1gCkG2qr6x2S-39" value="" style="edgeStyle=orthogonalEdgeStyle;rounded=0;orthogonalLoop=1;jettySize=auto;html=1;fontSize=15;fontStyle=1" parent="1" source="kYNa-zEm1gCkG2qr6x2S-27" target="kYNa-zEm1gCkG2qr6x2S-37" edge="1">
          <mxGeometry relative="1" as="geometry" />
        </mxCell>
        <mxCell id="kYNa-zEm1gCkG2qr6x2S-27" value="Component Number&lt;br style=&quot;border-color: var(--border-color); font-size: 15px;&quot;&gt;selection" style="rounded=1;whiteSpace=wrap;html=1;absoluteArcSize=1;arcSize=14;strokeWidth=2;fontSize=15;fontStyle=1" parent="1" vertex="1">
          <mxGeometry x="242" y="350" width="150" height="50" as="geometry" />
        </mxCell>
        <mxCell id="kYNa-zEm1gCkG2qr6x2S-41" value="" style="edgeStyle=orthogonalEdgeStyle;rounded=0;orthogonalLoop=1;jettySize=auto;html=1;fontSize=15;fontStyle=1" parent="1" source="kYNa-zEm1gCkG2qr6x2S-28" target="kYNa-zEm1gCkG2qr6x2S-40" edge="1">
          <mxGeometry relative="1" as="geometry" />
        </mxCell>
        <mxCell id="kYNa-zEm1gCkG2qr6x2S-28" value="Component Number&lt;br style=&quot;border-color: var(--border-color); font-size: 15px;&quot;&gt;selection" style="rounded=1;whiteSpace=wrap;html=1;absoluteArcSize=1;arcSize=14;strokeWidth=2;fontSize=15;fontStyle=1" parent="1" vertex="1">
          <mxGeometry x="418" y="350" width="150" height="50" as="geometry" />
        </mxCell>
        <mxCell id="kYNa-zEm1gCkG2qr6x2S-58" value="" style="edgeStyle=orthogonalEdgeStyle;rounded=0;orthogonalLoop=1;jettySize=auto;html=1;fontSize=15;fontStyle=1" parent="1" source="kYNa-zEm1gCkG2qr6x2S-37" target="kYNa-zEm1gCkG2qr6x2S-48" edge="1">
          <mxGeometry relative="1" as="geometry" />
        </mxCell>
        <mxCell id="kYNa-zEm1gCkG2qr6x2S-37" value="Computing Weights" style="rounded=1;whiteSpace=wrap;html=1;absoluteArcSize=1;arcSize=14;strokeWidth=2;fontSize=15;fontStyle=1" parent="1" vertex="1">
          <mxGeometry x="242" y="431" width="150" height="50" as="geometry" />
        </mxCell>
        <mxCell id="kYNa-zEm1gCkG2qr6x2S-57" value="" style="edgeStyle=orthogonalEdgeStyle;rounded=0;orthogonalLoop=1;jettySize=auto;html=1;fontSize=15;fontStyle=1" parent="1" source="kYNa-zEm1gCkG2qr6x2S-40" target="kYNa-zEm1gCkG2qr6x2S-49" edge="1">
          <mxGeometry relative="1" as="geometry" />
        </mxCell>
        <mxCell id="kYNa-zEm1gCkG2qr6x2S-40" value="Computing Weights" style="rounded=1;whiteSpace=wrap;html=1;absoluteArcSize=1;arcSize=14;strokeWidth=2;fontSize=15;fontStyle=1" parent="1" vertex="1">
          <mxGeometry x="418" y="431" width="150" height="50" as="geometry" />
        </mxCell>
        <mxCell id="kYNa-zEm1gCkG2qr6x2S-48" value="Best model" style="rounded=1;whiteSpace=wrap;html=1;absoluteArcSize=1;arcSize=14;strokeWidth=2;fillColor=#d5e8d4;strokeColor=#82b366;fontSize=15;fontStyle=1" parent="1" vertex="1">
          <mxGeometry x="267" y="500" width="100" height="50" as="geometry" />
        </mxCell>
        <mxCell id="kYNa-zEm1gCkG2qr6x2S-49" value="Best model" style="rounded=1;whiteSpace=wrap;html=1;absoluteArcSize=1;arcSize=14;strokeWidth=2;fillColor=#d5e8d4;strokeColor=#82b366;fontSize=15;fontStyle=1" parent="1" vertex="1">
          <mxGeometry x="443" y="500" width="100" height="50" as="geometry" />
        </mxCell>
        <mxCell id="kYNa-zEm1gCkG2qr6x2S-53" value="" style="edgeStyle=orthogonalEdgeStyle;rounded=0;orthogonalLoop=1;jettySize=auto;html=1;entryX=0.5;entryY=0;entryDx=0;entryDy=0;fontSize=15;fontStyle=1" parent="1" target="kYNa-zEm1gCkG2qr6x2S-27" edge="1">
          <mxGeometry relative="1" as="geometry">
            <mxPoint x="410" y="320" as="sourcePoint" />
            <mxPoint x="503" y="360" as="targetPoint" />
            <Array as="points">
              <mxPoint x="317" y="320" />
            </Array>
          </mxGeometry>
        </mxCell>
        <mxCell id="kYNa-zEm1gCkG2qr6x2S-66" value="" style="edgeStyle=orthogonalEdgeStyle;rounded=0;orthogonalLoop=1;jettySize=auto;html=1;fontSize=15;fontStyle=1" parent="1" source="kYNa-zEm1gCkG2qr6x2S-61" target="kYNa-zEm1gCkG2qr6x2S-65" edge="1">
          <mxGeometry relative="1" as="geometry" />
        </mxCell>
        <mxCell id="kYNa-zEm1gCkG2qr6x2S-61" value="Model evaluation&lt;br style=&quot;font-size: 15px;&quot;&gt;(&amp;nbsp;β)" style="rounded=1;whiteSpace=wrap;html=1;absoluteArcSize=1;arcSize=14;strokeWidth=2;fontSize=15;fontStyle=1" parent="1" vertex="1">
          <mxGeometry x="438" y="602" width="150" height="50" as="geometry" />
        </mxCell>
        <mxCell id="kYNa-zEm1gCkG2qr6x2S-64" value="" style="edgeStyle=orthogonalEdgeStyle;rounded=0;orthogonalLoop=1;jettySize=auto;html=1;fontSize=15;fontStyle=1" parent="1" source="kYNa-zEm1gCkG2qr6x2S-62" target="kYNa-zEm1gCkG2qr6x2S-63" edge="1">
          <mxGeometry relative="1" as="geometry" />
        </mxCell>
        <mxCell id="kYNa-zEm1gCkG2qr6x2S-73" value="" style="edgeStyle=orthogonalEdgeStyle;rounded=0;orthogonalLoop=1;jettySize=auto;html=1;" parent="1" source="kYNa-zEm1gCkG2qr6x2S-62" target="kYNa-zEm1gCkG2qr6x2S-63" edge="1">
          <mxGeometry relative="1" as="geometry" />
        </mxCell>
        <mxCell id="kYNa-zEm1gCkG2qr6x2S-62" value="Model evaluation&lt;br style=&quot;font-size: 15px;&quot;&gt;( α)(Cross Validation)" style="rounded=1;whiteSpace=wrap;html=1;absoluteArcSize=1;arcSize=14;strokeWidth=2;fontSize=15;fontStyle=1" parent="1" vertex="1">
          <mxGeometry x="225" y="602" width="150" height="50" as="geometry" />
        </mxCell>
        <mxCell id="kYNa-zEm1gCkG2qr6x2S-63" value="Result&lt;br style=&quot;font-size: 15px;&quot;&gt;(α-&amp;gt;α)" style="whiteSpace=wrap;html=1;rounded=1;arcSize=14;strokeWidth=2;fontSize=15;fontStyle=1" parent="1" vertex="1">
          <mxGeometry x="240" y="682" width="120" height="60" as="geometry" />
        </mxCell>
        <mxCell id="kYNa-zEm1gCkG2qr6x2S-65" value="Result&lt;br style=&quot;font-size: 15px;&quot;&gt;(α-&amp;gt;β)" style="whiteSpace=wrap;html=1;rounded=1;arcSize=14;strokeWidth=2;fontSize=15;fontStyle=1" parent="1" vertex="1">
          <mxGeometry x="453" y="682" width="120" height="60" as="geometry" />
        </mxCell>
        <mxCell id="kYNa-zEm1gCkG2qr6x2S-67" value="" style="endArrow=none;html=1;rounded=0;" parent="1" edge="1">
          <mxGeometry width="50" height="50" relative="1" as="geometry">
            <mxPoint x="140" y="570" as="sourcePoint" />
            <mxPoint x="670" y="570" as="targetPoint" />
          </mxGeometry>
        </mxCell>
        <mxCell id="kYNa-zEm1gCkG2qr6x2S-70" value="" style="edgeStyle=orthogonalEdgeStyle;rounded=0;orthogonalLoop=1;jettySize=auto;html=1;fontSize=15;fontStyle=1" parent="1" edge="1">
          <mxGeometry relative="1" as="geometry">
            <mxPoint x="316.86" y="551" as="sourcePoint" />
            <mxPoint x="316.86" y="570" as="targetPoint" />
          </mxGeometry>
        </mxCell>
        <mxCell id="kYNa-zEm1gCkG2qr6x2S-71" value="" style="edgeStyle=orthogonalEdgeStyle;rounded=0;orthogonalLoop=1;jettySize=auto;html=1;fontSize=15;fontStyle=1" parent="1" edge="1">
          <mxGeometry relative="1" as="geometry">
            <mxPoint x="492.86" y="551" as="sourcePoint" />
            <mxPoint x="492.86" y="570" as="targetPoint" />
          </mxGeometry>
        </mxCell>
        <mxCell id="kYNa-zEm1gCkG2qr6x2S-74" value="" style="edgeStyle=orthogonalEdgeStyle;rounded=0;orthogonalLoop=1;jettySize=auto;html=1;fontSize=15;fontStyle=1" parent="1" edge="1">
          <mxGeometry relative="1" as="geometry">
            <mxPoint x="508" y="570" as="sourcePoint" />
            <mxPoint x="512" y="601" as="targetPoint" />
          </mxGeometry>
        </mxCell>
        <mxCell id="kYNa-zEm1gCkG2qr6x2S-75" value="" style="edgeStyle=orthogonalEdgeStyle;rounded=0;orthogonalLoop=1;jettySize=auto;html=1;" parent="1" edge="1">
          <mxGeometry relative="1" as="geometry">
            <mxPoint x="299" y="571" as="sourcePoint" />
            <mxPoint x="299" y="601" as="targetPoint" />
          </mxGeometry>
        </mxCell>
        <mxCell id="kYNa-zEm1gCkG2qr6x2S-77" value="&lt;span style=&quot;font-size: 17px;&quot;&gt;&lt;b&gt;基于分类的识别&lt;br&gt;&lt;/b&gt;&lt;/span&gt;" style="text;html=1;strokeColor=none;fillColor=none;align=center;verticalAlign=middle;whiteSpace=wrap;rounded=0;" parent="1" vertex="1">
          <mxGeometry x="250" y="290" width="140" height="30" as="geometry" />
        </mxCell>
        <mxCell id="IyISo54-lIeVoVc3-dM5-1" value="&lt;span style=&quot;font-size: 17px;&quot;&gt;&lt;b&gt;开集识别&lt;br&gt;&lt;/b&gt;&lt;/span&gt;" style="text;html=1;strokeColor=none;fillColor=none;align=center;verticalAlign=middle;whiteSpace=wrap;rounded=0;" vertex="1" parent="1">
          <mxGeometry x="420" y="290" width="140" height="30" as="geometry" />
        </mxCell>
      </root>
    </mxGraphModel>
  </diagram>
</mxfile>
